<?xml version="1.0" encoding="UTF-8"?>
<svg id="Calque_1_-_copie" data-name="Calque 1 - copie" xmlns="http://www.w3.org/2000/svg" viewBox="0 0 850.53 826">
  <defs>
    <style>
      .cls-1 {
        fill: #fff;
      }

      .cls-2 {
        fill: #fbb03b;
      }
    </style>
  </defs>
  <g>
    <g>
      <path class="cls-1" d="M441.63,203.77c115.83,2.67,207.74,98.11,205.07,213.13-2.71,116.69-97.68,207.69-214.39,205.23-112.52-2.38-204.32-95.04-204.09-209.07-.17-118.27,97.65-211.97,213.41-209.29Zm-1.87,413.82c111.48-.2,202.62-92.89,202.28-205.93-.34-112.06-92.53-204.17-206.87-203.43-110.81,.71-202.52,92.95-202.27,204.5,.25,114.42,91.79,205.07,206.86,204.86Z"/>
      <path class="cls-1" d="M588.14,418.1c.7,25.6-7.76,48.87-20.55,70.47-25.28,42.69-62.94,67.78-112.08,73.89-78.85,9.8-150.9-43.18-165.65-120.13-10.4-54.26,5.18-101.32,45.07-139.5,28.55-27.31,63.49-40.03,96.67-40.57,68.83,.06,124.47,39.86,145.81,99.68,6.5,18.19,10.21,36.92,10.73,56.16Zm-150.79,136.82c78.04,0,142.11-63.82,142.09-141.58-.01-83.91-70.45-142.13-136.06-142.23-82.86-.13-147.86,62.66-147.88,142.49-.02,77.38,64.16,141.32,141.85,141.32Z"/>
    </g>
    <g>
      <path class="cls-2" d="M630.05,383c3.85,15.64,4.35,31.54,2.7,47.39-1.18,11.39-3.53,22.66-5.61,33.94-1.72,9.36-7.14,15.59-16.62,17.77-1.33,.3-3.67,.33-4.05-.35-.68-1.21-.62-3.19-.14-4.61,1.7-5.03,5.07-8.77,10.34-9.92,7.12-1.54,10.08-5.62,11.48-12.82,4.49-23.13,5.41-46.22,1.91-69.51-.09-.62-.01-1.26-.01-1.89Z"/>
      <path class="cls-2" d="M616.57,444.56c2.04,7.31-.81,14-8.11,17.39-4.71-6.52-3.66-13.96,2.11-19.38,1.64-1.53,3.08-3.89,3.43-6.07,2.76-16.72,1.97-33.46-.42-50.16-.16-1.12-.29-2.24,.73-3.54,.43,3.11,.88,6.22,1.3,9.32,1.96,14.42,1.75,28.82,.02,43.25-.36,2.99,.12,6.26,.94,9.19Z"/>
      <path class="cls-2" d="M605.52,494.49c3.38-.68,6.8-1.2,10.61-1.87-1.69,9.33-11.14,16.73-20.09,15.97-3.23-.27-3.95-1.93-2.6-4.74,2.46-5.14,6.53-8.24,12.08-9.36Z"/>
      <path class="cls-2" d="M598.22,459.75c4.28,4.87,5.43,10.56,3.5,16.78-1.14,3.68-3.19,4.05-5.69,1.24-5.66-6.35-6.84-13.45-4.69-21.78,2.63-10.24,5.4-20.67,6.02-31.14,.72-12.03-.83-24.19-1.43-36.3-.09-1.89-.36-3.77-.55-5.65,.45-.06,.91-.11,1.37-.16,.78,6.83,1.84,13.64,2.29,20.49,.99,15.01,.2,29.97-3.46,44.61-1.16,4.67-.5,8.34,2.64,11.91Z"/>
      <path class="cls-2" d="M589.71,520.09c3.92-.06,7.83-.36,11.8-.56-3.34,9.03-13.38,14.66-22.25,12.74-3.49-.75-4.12-2.3-2.03-5.13,3.11-4.22,6.99-6.96,12.48-7.05Z"/>
      <path class="cls-2" d="M589.88,486.69c2.27,4.8,2.25,9.62,.04,14.37-1.8,3.85-3.97,3.92-6.48,.38-5.19-7.33-4.52-17.46,1.82-24.98,1.65,3.67,3.08,6.98,4.62,10.23Z"/>
      <path class="cls-2" d="M576.51,510.22c1.67,5.45,.2,10.17-3.12,14.49-2.01,2.63-3.74,2.2-5.32-.54-4.58-7.99-2.33-19.13,5.34-25.33,1.1,4.07,1.99,7.76,3.1,11.38Z"/>
      <path class="cls-2" d="M570.04,542.67c4.11-.57,8.47,.71,13.05,1.22-5.69,8.46-14.79,12.03-23.47,9.48-4.4-1.3-5.25-3.51-1.62-5.95,3.53-2.37,7.86-4.17,12.04-4.75Z"/>
      <path class="cls-2" d="M558.18,519.81c.41,4.28,1.67,8.7,1.02,12.81-.66,4.16-3.02,8.12-5.1,11.91-.35,.64-4.02,.6-4.57-.21-4.94-7.25,.32-21.74,8.65-24.51Z"/>
      <path class="cls-2" d="M547.84,561.72c3.99,.98,7.93,2.2,12.33,3.44-6.08,7.6-16.98,9.81-24.88,5.39-3.03-1.7-3.31-3.48-.5-5.62,3.88-2.97,8.18-4.42,13.05-3.21Z"/>
      <path class="cls-2" d="M539.29,537.32c0,3.94,.16,8.02-.03,12.09-.26,5.4-3.15,9.42-7.68,12-.91,.52-3.96-.59-4.32-1.57-3.09-8.36,3.67-20.23,12.03-22.52Z"/>
      <path class="cls-2" d="M523.53,577.47c3.77,1.65,7.53,3.34,11.27,5-6.57,6.61-19.13,7.27-25.75,1.28-2.28-2.06-2.27-3.97,.59-5.45,4.49-2.31,9.12-2.92,13.89-.83Z"/>
      <path class="cls-2" d="M519.04,551.49c-.72,3.58-1.36,6.8-1.99,10.03-1.08,5.48-3.47,10.01-8.81,12.49-3.83,1.77-5.24,.95-5.3-3.17-.12-8.22,6.48-18.18,16.1-19.35Z"/>
      <path class="cls-2" d="M496.08,588.91c3.92,1.28,7.23,4.45,10.81,6.79-7.66,5.49-19.82,4.07-25.81-2.92-2.28-2.66-1.23-4.83,1.58-5,4.46-.26,9.25-.23,13.42,1.13Z"/>
      <path class="cls-2" d="M496.23,562.64c-1.64,4.25-3.12,8.11-4.61,11.95-1.83,4.75-5.57,7.34-10.21,8.79-3.33,1.03-4.76-.24-4.26-3.74,1.31-9.31,8.75-16.09,19.08-17Z"/>
      <path class="cls-2" d="M398.28,578.88c.77,4.35-.63,5.6-4.78,4.3-5.14-1.61-8.35-5.13-10.17-10.09-1.25-3.39-2.55-6.77-3.95-10.48,9.64,.71,17.32,7.4,18.9,16.27Z"/>
      <path class="cls-2" d="M392.14,587.45c3.88,1.07,4.33,3.08,1.55,6.02-6.02,6.37-17.18,7.46-25.08,2.38,3.02-2.04,5.82-3.79,8.46-5.75,4.61-3.41,9.68-4.13,15.07-2.65Z"/>
      <path class="cls-2" d="M356.61,551.42c9.51,2.08,16.2,10.5,15.95,19.68-.1,4.02-1.96,4.56-5.13,2.96-4.78-2.4-7.61-6.29-8.64-11.52-.69-3.57-1.4-7.14-2.18-11.12Z"/>
      <path class="cls-2" d="M365.21,577.93c3.99,1.93,4.1,3.94,.48,6.41-7.56,5.17-17.6,4.53-24.97-1.7,3.69-1.75,7.09-3.42,10.54-4.99,4.68-2.13,9.38-1.94,13.95,.28Z"/>
      <path class="cls-2" d="M336.22,536.88c9.02,4.12,13.65,12.24,12.3,21.57-.65,4.47-2.16,5.04-5.83,2.3-4.15-3.1-6.22-7.29-6.44-12.36-.16-3.78-.03-7.56-.03-11.51Z"/>
      <path class="cls-2" d="M340.88,564.93c2.09,1.57,2.92,3.37,.19,5.07-7.05,4.39-20.32,3.78-25.54-4.92,3.94-1.1,7.88-2.22,11.82-3.29,5.07-1.38,9.49,.12,13.53,3.14Z"/>
      <path class="cls-2" d="M317.44,519.29c8.6,4.63,12.72,15.8,9.09,24.27-1.2,2.81-3.35,3.36-4.83,1.11-2.36-3.6-4.85-7.61-5.49-11.73-.68-4.38,.73-9.08,1.23-13.65Z"/>
      <path class="cls-2" d="M317.52,547.15c3.09,3.01,2.53,5.07-1.63,6.27-8.82,2.55-17.8-1.1-23.22-9.56,4.13-.44,7.9-.85,11.67-1.26,5.11-.56,9.52,.98,13.18,4.55Z"/>
      <path class="cls-2" d="M302.25,498.76c7.54,6.91,9.58,17.36,5.36,25.17-1.89,3.5-3.73,3.31-5.88,.37-3.14-4.31-3.92-9.08-2.57-14.2,.96-3.66,1.99-7.31,3.09-11.34Z"/>
      <path class="cls-2" d="M298.19,527.24c2.7,2.46,1.01,4.43-2.1,5.17-8.56,2.05-19.07-4.12-22.11-13.09,4.66,.31,9.49-.18,13.76,1.15,3.84,1.18,7.39,3.99,10.45,6.77Z"/>
      <path class="cls-2" d="M290.3,476.66c6.45,6.87,7,18.31,1.32,25.44-2.18,2.74-3.99,2.64-5.61-.46-2.33-4.5-2.94-9.12-.84-13.86,1.65-3.72,3.41-7.4,5.13-11.12Z"/>
      <path class="cls-2" d="M284.28,456.07c2.09,8.06,1.14,15.16-4.45,21.44-2.88,3.23-4.5,2.91-5.96-1.05-2.16-5.87-.98-11.25,2.95-15.87,3.4-4.01,4.21-7.96,3.04-13.26-4.54-20.55-4.87-41.27-1.15-62.02,.01-.06,.02-.11,.04-.17-.26,14.27-1.12,28.58-.33,42.79,.53,9.47,3.46,18.86,5.86,28.14Z"/>
      <path class="cls-2" d="M281.58,502.96c.6,1.21,1.13,3.37,.53,4.05-.9,1.01-2.87,1.56-4.33,1.48-9.13-.53-15.69-6.18-18.9-16.21,4.3,.91,8.16,1.76,12.04,2.53,4.9,.97,8.44,3.78,10.66,8.15Z"/>
      <path class="cls-1" d="M278.78,383.21c.18-.05,.35-.1,.53-.15-.19,.69-.42,1.38-.56,2.08,.01-.64,.02-1.29,.03-1.93Z"/>
      <path class="cls-2" d="M269.44,477.67c1.22,4.01,.06,5.43-3.98,4.55-8.37-1.82-14.11-6.81-16.29-15.11-7.02-26.7-9.34-53.75-5.31-81.18,.09-.66,.22-1.32,.43-1.94,.09-.28,.4-.48,.57-.67-.52,10.92-1.88,21.75-1.32,32.47,.71,13.74,3.07,27.4,4.52,41.11,.58,5.43,3.45,8.27,8.58,9.46,6.25,1.45,10.86,4.89,12.8,11.31Z"/>
      <path class="cls-2" d="M264.84,442.37c6.05,5.45,7.06,13.32,2.23,19.45-7.18-2.84-10.37-10.39-7.88-17.98,.69-2.1,1.03-4.49,.79-6.68-1.89-17.62-1.91-35.2,1.01-52.72,.08-.45,.39-.86,1.15-2.49-.75,9.16-1.89,17.06-1.93,24.96-.05,10.12,.63,20.25,1.37,30.36,.13,1.79,1.79,3.78,3.26,5.1Z"/>
    </g>
    <path class="cls-2" d="M501.22,352.22c-.59,.83-1.19,1.66-1.78,2.49-8.65,.31-17.21-1.33-25.12-4.44-11.39-4.48-22.37-10.07-33.32-15.58-2.8-1.41-4.64-1.54-7.2,.15-15.36,10.11-32.19,16.51-50.33,19.47-1.8,.29-3.64,.38-5.46,.47-.8,.03-1.6-.17-3.47-.39,1.45-1.87,2.28-3.38,3.5-4.43,13.51-11.68,29.14-18.44,46.99-19.74,8.41-.61,8.54-.58,8.51-9.07-.03-6.49-.06-12.98-.07-19.47,0-2.73,.71-5.27,3.93-5.28,3.54-.02,4.05,2.61,4.02,5.59-.08,6.82-.03,13.65,.04,20.47,.08,6.94,.45,7.24,7.28,7.68,18.21,1.19,34.24,7.7,48.03,19.71,1.24,1.07,2.96,1.59,4.45,2.37Z"/>
    <g>
      <path class="cls-2" d="M519.27,407.88c.12,.75-.17,1.58-.47,3.91-3.12-2.61-5.39-4.41-7.54-6.33-13.44-12.01-26.16-24.68-35.89-40-1.42-2.24-2.02-5-3-7.53,2.68,.12,5.39,.03,8.04,.39,4.28,.58,8.49,1.74,12.77,2.12,4.69,.42,8.11,2.45,10.81,6.21,8.87,12.35,12.81,26.52,15.28,41.23Z"/>
      <path class="cls-2" d="M512.03,434.74c.37,6.33-.3,12.7-3.37,19.27-1.02-1.22-1.74-1.71-1.93-2.36-2.5-8.94-7.72-16.12-14.48-22.24-2.57-2.33-3.06-4.6-1.72-7.93,2.08-5.21,3.82-10.6,5.17-16.05,.95-3.84,1.96-3.62,4.9-1.58,11.1,7.69,10.77,19.52,11.43,30.89Z"/>
      <path class="cls-2" d="M495.32,443.41c5.13,4.84,6.57,10.33,5.57,15.85-2.95,16.35-10.38,30.64-21.15,43.17-.51-.1-1.01-.2-1.52-.3,.32-2.18,.58-4.38,.96-6.55,1.57-8.78,3.16-17.55,4.76-26.32,.23-1.28,.28-2.66,.81-3.82,3.03-6.61,6.17-13.18,9.29-19.76,.29-.59,.65-1.15,1.28-2.27Z"/>
      <path class="cls-2" d="M487.26,390.7c1.76,2.4,2.59,5.48,3.89,8.35-1.87,6.57-3.26,12.73-5.41,18.61-1.88,5.16-5.5,5.46-8.96,1.31-6.38-7.66-12.91-15.19-19.04-23.04-1.11-1.41-1.37-4.39-.7-6.13,2.6-6.63,5.87-13,8.6-19.59,1.47-3.53,2.83-3.73,5.11-.79,5.5,7.1,11.2,14.05,16.51,21.28Z"/>
      <path class="cls-2" d="M487.1,433.23c1.35,1.1,1.96,3.1,2.55,4.15-1.94,10.46-5.66,19.11-11.54,26.74-2.06,2.67-4.41,2.31-6.49-.57-3.68-5.12-7.74-9.97-11.26-15.19-.96-1.43-1.29-4.13-.6-5.66,2.32-5.13,5.19-10.03,7.94-14.96,2.21-3.94,5.14-3.89,7.39,.11,.98,1.73,1.67,3.62,2.62,5.38,1.29,2.4,2.99,2.7,5.34,1.18,1.19-.77,3.42-1.7,4.05-1.18Z"/>
      <path class="cls-2" d="M476.67,474.88c2.47,10.63-7.61,30.65-18.53,41.13,0-1.67-.06-2.85,.01-4.01,.37-6.91,.76-13.82,1.17-20.73,.06-.95-.03-2.04,.39-2.83,2.81-5.41,5.74-10.75,9.03-16.84,1.35,1.93,2.36,3.38,3.55,5.09,1.47-.61,2.92-1.21,4.38-1.81Z"/>
      <path class="cls-2" d="M465.12,417.75c-1.1,2.68-2.14,6.64-4.2,9.96-5.76,9.3-11.7,18.5-18.06,27.4-3.56,4.97-6.46,4.8-10.53,.26-8.95-9.98-15.85-21.28-21.07-33.64-2.22-5.28-1.1-9.62,2.69-13.68,9.94-10.62,9.26-9.67,17.39-.19,4.69,5.47,7.14,5.42,12.09,.17,.23-.24,.43-.53,.7-.71,3.15-1.97,3.65-7.88,8.95-6.49,4.29,1.13,11.9,11.55,12.04,16.92Z"/>
      <path class="cls-2" d="M464,462.95c-1.11,3.82-1.63,6.82-2.84,9.51-1.98,4.38-4.08,8.77-6.7,12.78-5.32,8.14-5.08,8.58-11.92,1.4-3.82-4.01-6.08-3.81-10.17,0-7.02,6.54-7.17,6.63-12.29-1.81-2.57-4.25-4.75-8.78-6.62-13.39-3.43-8.44-2.39-12.26,4.78-17.75,.98-.75,3.8-.51,4.74,.37,3.37,3.18,6.2,6.94,9.43,10.29,3.68,3.82,6.4,3.77,10.13-.1,3.11-3.23,6.11-6.58,8.99-10.02,2.16-2.58,4.06-2.6,6.04,.03,2.24,2.98,4.43,5.99,6.43,8.7Z"/>
      <path class="cls-2" d="M458.48,351.05c1.98,1.14,3.32,3.38,4.36,4.49-2.57,14.01-7.05,25.56-14.19,36.04-2.06,3.02-4.14,6.06-6.48,8.86-2.81,3.37-6.09,3.54-8.88,.35-10.63-12.18-17.48-26.25-20.54-42.14-.77-3.96,.51-6.42,4.55-8.13,5.8-2.46,11.14-5.96,16.87-8.6,1.75-.81,4.45-1.01,6.15-.24,6.2,2.8,12.26,5.97,18.16,9.37Z"/>
      <path class="cls-2" d="M452.54,498.75c.38,1.58,.89,2.5,.75,3.31-1.73,9.73-5.42,18.54-13.04,25.16-1.05,.91-3.99,1.23-4.91,.46-8.59-7.19-12.66-16.7-13.46-28.48,4.16,3.69,6.11,1.18,8.36-1.66,5.37-6.78,9.03-6.69,14.68,.06,2.02,2.42,3.72,5.88,7.62,1.15Z"/>
      <path class="cls-2" d="M417.84,389.48c1.36,2.97,.92,5.04-1.34,7.56-6.12,6.77-11.75,13.98-17.77,20.85-1.39,1.58-3.66,3.63-5.28,3.43-1.71-.2-3.74-2.58-4.55-4.47-1.63-3.79-2.77-7.83-3.67-11.87-1.51-6.74-.03-12.46,5.09-17.73,5.07-5.2,9.04-11.47,13.51-17.26,.78-1,1.64-1.94,2.95-3.49,1.05,1.45,1.94,2.33,2.42,3.4,2.92,6.51,5.66,13.1,8.64,19.58Z"/>
      <path class="cls-2" d="M406.7,471.16c3.07,9.76,10.47,16.75,8.65,27.53-.89,5.31,.96,11.07,1.12,16.82-10.72-11.34-18.14-24.23-19.22-41.25,2.3,1.09,3.73,1.76,5.32,2.51,1.24-1.7,2.36-3.21,4.13-5.61Z"/>
      <path class="cls-2" d="M414.99,442.69c.63,1.71,.3,4.43-.71,5.96-3.29,4.98-7.17,9.56-10.66,14.41-1.81,2.52-3.54,4.05-6.41,1.47-4.33-3.87-11.7-20.74-11.6-27.9,.33-.56,.91-2.51,2.21-3.37,.79-.53,2.93,.3,4.05,1.1,2.68,1.9,4.02,.88,5.55-1.53,1.83-2.89,1.91-8.46,6.49-7.51,2.41,.5,4.13,4.91,5.89,7.72,1.95,3.1,3.94,6.25,5.19,9.65Z"/>
      <path class="cls-2" d="M402.47,357.63c-.23,1.38,0,3.1-.75,4.08-7.65,10-15.04,20.24-23.34,29.67-6.3,7.16-13.8,13.24-20.77,19.81-.53-.23-1.05-.45-1.58-.68-.08-1.39-.45-2.83-.19-4.16,2.64-13.59,6.23-26.83,14.2-38.49,3.09-4.51,6.82-7.2,12.59-7.57,5.25-.34,10.41-1.99,15.64-2.9,1.34-.24,2.8,.14,4.2,.24Z"/>
      <path class="cls-2" d="M396.67,501.95c-.5,.15-1.01,.31-1.51,.46-10.74-12.56-18.42-26.77-20.96-43.25-.63-4.07,1.59-8.63,2.77-12.89,.21-.78,1.68-1.52,2.66-1.67,.45-.06,1.28,1.27,1.68,2.1,3.02,6.27,6.01,12.55,8.94,18.87,.47,1.01,.62,2.19,.81,3.3,1.5,8.64,2.97,17.29,4.45,25.93,.4,2.38,.78,4.77,1.16,7.15Z"/>
      <path class="cls-2" d="M385.09,423.99c.36,1.17-.14,3.29-1.03,4.06-7.95,6.91-13.65,15.27-17.89,25.62-.74-1.97-1.81-3.89-2.15-5.92-1.73-10.29-1.49-20.56,.84-30.75,1.61-7.04,6.81-11.04,12.71-15.36,2.72,7.97,5.27,15.12,7.52,22.35Z"/>
    </g>
  </g>
  <g>
    <path class="cls-1" d="M371.18,245.66c3.04,10.49-2.55,20.96-12.55,24.89-9.58,3.77-20.48,.05-25.27-9.26-5.59-10.88,1.36-22.42,11.87-26.6,10.27-4.09,22.67-.33,25.95,10.97Zm-28.65,11.05c2.98,6.62,8.45,9.7,14.1,7.48,5.7-2.25,7.3-8.41,4.98-15.23-2.14-6.3-7.66-10.55-14.19-7.97-6.41,2.53-7.85,9.16-4.89,15.73Z"/>
    <path class="cls-1" d="M387.73,222.49c-1.08,5.68-2.85,11.53-4.75,16.18-2.25,.68-3.37,1.04-5.6,1.78,.71-5,1.16-10.58,.94-15.5,3.74-1.06,5.62-1.56,9.41-2.46Z"/>
    <path class="cls-1" d="M397.13,222.05c2.61-.82,8.01-1.85,13.13-2.3,6.27-.55,10.2-.1,13.49,1.3,3.1,1.32,5.45,3.81,5.47,7.16,.02,3.3-2.2,6.35-6.89,8.07,0,.04,0,.07,0,.11,4.86,.97,8.38,4.19,8.37,8.97,0,3.35-1.66,6-4.04,7.9-2.76,2.2-7.36,3.49-14.92,4.23-4.23,.41-7.42,.57-9.37,.58-1.75-12.01-3.5-24.02-5.24-36.03Zm11.54,12.87c1.26-.13,1.89-.19,3.15-.3,5.04-.44,7.67-2.34,7.53-5.09-.14-2.8-2.78-4.19-7.31-3.81-2.17,.18-3.4,.41-4.24,.61,.35,3.44,.52,5.15,.87,8.59Zm1.65,16.36c.89,.02,1.93-.08,3.45-.21,4.02-.34,7.52-1.92,7.34-5.82-.17-3.74-3.99-5.06-8.65-4.66-1.28,.11-1.91,.17-3.19,.3,.42,4.16,.63,6.24,1.05,10.4Z"/>
    <path class="cls-1" d="M446.98,246.07c.02,3.48,3.5,5.4,7.62,5.9,3.02,.36,5.5,.33,8,0,.11,2.31,.15,3.47,.24,5.78-3,.62-6.49,.66-10.21,.24-9.35-1.06-14.54-6.38-14.23-14.79,.25-6.81,5.53-14.37,16.48-13.18,10.18,1.11,12.84,8.64,11.7,15.2-.24,1.41-.64,2.62-.86,3.2-7.46-1.28-11.22-1.76-18.74-2.35Zm11.42-4.54c.27-2.02-.29-5.57-4.69-6.04-4.02-.43-5.92,2.65-6.34,4.88,4.42,.35,6.63,.58,11.03,1.16Z"/>
    <path class="cls-1" d="M481.2,251.7c-.56,3.43,2.57,5.92,6.59,7.11,2.94,.87,5.41,1.26,7.95,1.37-.28,2.3-.42,3.45-.73,5.74-3.09,.09-6.57-.46-10.19-1.5-9.11-2.63-13.36-8.75-11.65-16.98,1.39-6.68,7.87-13.25,18.55-10.21,9.92,2.82,11.33,10.71,9.11,16.99-.48,1.35-1.07,2.48-1.39,3.01-7.21-2.55-10.87-3.65-18.23-5.51Zm12.1-2.55c.6-1.94,.64-5.55-3.65-6.75-3.92-1.1-6.32,1.61-7.11,3.74,4.33,1.09,6.48,1.69,10.76,3.02Z"/>
    <path class="cls-1" d="M510.46,253.61c1.48-3.67,2.32-6.12,3.06-8.31,3.19,1.28,4.78,1.95,7.94,3.36-.69,1.86-1.03,2.79-1.72,4.65,.09,.04,.14,.06,.24,.11,3.07-2.9,7.39-2.71,10.19-1.32,.83,.41,1.25,.62,1.85,1.06-1.43,2.8-2.14,4.2-3.57,7.01-.58-.42-1.28-.89-2.25-1.38-3.22-1.59-6.13-1.1-7.77,.99-.34,.45-.67,1.02-.94,1.62-2.26,4.96-3.39,7.45-5.65,12.41-3.21-1.46-4.83-2.16-8.09-3.47,2.69-6.69,4.04-10.04,6.73-16.73Z"/>
  </g>
</svg>