<?xml version="1.0" encoding="UTF-8"?>
<svg id="Layer_1" data-name="Layer 1" xmlns="http://www.w3.org/2000/svg" viewBox="0 0 741.33 540.31">
  <defs>
    <style>
      .cls-1 {
        fill: #ccc;
        stroke: #fff;
        stroke-width: .5px;
      }
    </style>
  </defs>
  <path id="FR-ARA" class="cls-1" d="m737.3,311.69l-.91-3.19-3.14-.23.33-1.97-3.37-.91-.29-6.1-1.15-1.2,1.41-4.56-2.1-1.27-3.15.22-6.71-6.52.82-9.83,7.49-.89,3.44-2.22.39-2.48,2.58-2.08-.41-2.75-1.74-1.38.95-.72-5.46-7.57-2.89,1.83-1.07-.8,1.58-6.46-6.28-1.15.43-5.87,3.77-6.81-5.82-6.64,2.17-2.17.9-4.23-8.56-2.45-10.12-.21-16.55,8.65-1.99,4.3,1.7.75-.64,2.33,1.43,2.3,3.03-.42-.88,2.75-3.92,1.72-6.44,5.87-4.74-1.07-.97,1.5-2.63-.87-2.26,1.45,2.3-4.72-1.86-1.34.96-1.79,8.95-3.06-1.38-3.04,4.21-7.3-6.53-4.39h0l-12.11,13.47-8.95.35-.71-4.31-4.18-1.33-.22-1.83-2.93,4.35-1.85.13-1.67,2.3-4.05.37-1.04-.9.6-4.4-1.84.75-.79-2.9-1.27,3.33-.06-2.5-2.58-2.82.98-1.07-4.83-2.75,1.53-1.36-.57-1.6-4.88-1.04-2.09-4.53-2.11-.93-.07,1.35-1.94-.41-4.88,2.19-4.5-2.74-2.08,1.25-.54-1.6-10.06,30.52-3.36-.33.58-2.88-.98-1.34,1.04-.52-3.51-2.28,1.94-1.75-1.91-2.45-2.64.45-1.18,3.16-2.16-.34-.94-2.19-1.85,2.08-2.15.27-2.81-2.63-3.29.12-1.1,7.35-1.59,1.23.65,1.2-2.79.07-2.9,2.49-1.94-.13.29-2.58-1.77.87-1.12-1.48-1.83,1.83-2.81-.3-1.86-1.91-4.56,2.61h-2.47s-1.04-2.96-1.04-2.96l-5.11-1.04,1.18-2.85-1.13-3.44,3.29-1.37.14-1.88,2.54.61,1.07-1.13-1.23-.12-.53-6.21,1.46-5.65-2.9-1.4-.17-1.38-5.02.44-1.87-3.87-2.08,1.13-3.93-1.77-.35-5.68-1.43-.6.52-1.63-1.5-2.87-3.69-4.32-.84-4.29-2.25-.62-.8,1.13,1.31,2.22-3.06.14.82,3.03-.94.94-.94-1.01-2.73,3.35-1.84.07-.27-3.44-1.98-2.16-2.57.11-2,2.58-2.07-.49-.79-2.38-1.95-.09-4.31,3.64-4.4-4.58-4.4-2.13-1.65-3.93h0l-4.2-.84-2.66,1.02-4.42,4.24-.21,1.79-2.96-.81-2.33,1.6-1.7-2.73-1.11.19-.87,2.39-4.8,2.55.23,2.83-1.42-1.14-2.17,1.12,1.6,1.77-1.82,2.74,2.31,1.27.68,3.69-4.85,3.07-3.08-1.21-7.82,1.42-2.33,4.12h-.83s-1.11,4.54-1.11,4.54h0l.43,3.43,2.88.82-1.96,2.59,3.88,2.93,1.41-1.88,2.1,4.32.62-1.16,3.14,1.42,2.7,8.28,2.48,2.84-.97,6.17,1.33,3.45,1.86,1.09-.54,3.89,1.14,1.71-2.91,1.36-1.24,2.16.76,1.65-3.5,2.4-.47,2-1.96-.27h0l-.28.06h0l-1.62,2.81-1.72-.36-.87,1.18,3.4,5.87,2.57.91,2.4,3.41-.12,6-2.2.12-1.54,3.94,1.73,3.1,1.76.59-1.87,11.89,2.52,2.38-2.96,1.94-5.8-3.66-2.28-.02,1.23,2.13-.54,4.38-2.65,1.3-1.64,2.87-1.22-.25-1.74,3.67-2.85,2.34.42,3.47,1.91,1.37-3.21,2.44-.4,4.73-1.82-.37-2.71,2.28,2.7,5.02-2.03,1.69h0l-.5-.13h0l-2.43.63h0l.94,3.55,1.59,1.19-1.1,1.43.38,2.59,4.9,7.24-2.56,7.86,1.78.08.78,5.01,2.2,1.7,1.03-.56-.58-2.19,4.86-1.64,1.93-.17,1.56,2.55,8.01-.87.95-3.26,3.69-2.65-.62-2.84,3.07-3.31.26-4.59,8.06-8.18,2.28,2.5-.1,4.82,1.94-1.59h3.77l1.78,8.48,1.99-.38,1.03,1.7-1.58,1.1,1.46,1.49.1,5.58,2.78,3.08,2.2-5.99,1.35-.18-.77-1.1,1.21-6.24,1.63-3.27,1.64.35.28-3.13h.35l-.37-1.43,1.74-1.52,3.73,3.58,2.74-2.19-.79-1.88,1.62-.62-.48-1.66,1.55-.61,1.16,1.37,5.28-4.21.03,1.33,2.7,1.58.1,3.8,4.3,7.99,1.21-1.55,3.98-1.01,1.15.86.3-3.81h3.74l1.27,1.36-.49,2.21,4.75-.81,4.09,6.39,1.54-1.03.09,2.49,2.46.66-.9,2.51,1.43,1.26-.9,1.6,1.78,2.88.31,4.4,1.61,2.16,1.45-.13,2.2,8.52,5,5.77-1.76,1.21,1.08,2.39-1.33,2.9.71.95,5.06-1.52.8,2.02,2.2-.41,4.88,4.57,1.94-2.35-.05-1.96,2.38-2,4.07-.71.22,4.83,2.62.62.94-4.76,3.22-.46.41,1.3,2.28.28.6,1.99,5.81,2.73h0v-5.13l8.42,1.44,1.88,7.39,3.77-2.88,2.62.09,8.52-4.12,1.02,2.04,1.99.55,2.62-2.76h0l.99-.47h0l-.9,7.15,4.8,1.79,1.2-1.72,3.03,2.09,3.53-.62,1.84,1.21-.11,3.88,3.24.3,1.21,2.79,2.99.31,2.36-1.45,2.56-2.14-1.14-1.14.63-1.36,1.68-.41,2.34,2.02-.52,1.49,2.93.35.25-1.47-2.04-.94.13-1.29,2.26-.59v-6.1s-2.42,0-2.42,0l-.65-2.9-1.77-.48,1.31-2.35-5.02.28-1.63-1.77-1.73,1.13-3.87-3.2.79-1.41-1.49-2.93,1.18-.7,2.37,1.2,1.29-1.54-2.07-.91-.4-4.44,9.61,2.39.89-2.47,2.18-.19-4.12-3.6,3.14-5.87-.3-3.46,5.3,1.11,1.25-1.99,2.47.75,2.53-3.21-1.94-1.39,1.73-4.61,3.44,1.13,4.21-1.21,1.8-1.83-1.9-2.02,4.2-2.68,2.39,1.7,4.77-4.2,6.99,1.08,2.72-1.91,2.75,2.24,1.21-.59.15-7.36-2.19-1.26.07-3.91-4.45.2-2.91-1.72.96-4.22,1.51-.54-.85-2.73.92-1.63,1.08-.52,1.9,1.61,2.42-1.32,1.9,1.8.04,2.22,5.35,1.58,2.21-.27-.39-3.3,1.87-1.43,1.94.84,2.25-2.1,3.27,1.29h0l3.05-2.67,3.84.22,1.59-1.87,5.04,2.82,2.74-.84v-2.77s3.27-.12,3.27-.12l3.48-4.41,4.98.3,3.31-3.43-1.54-6.25,3.28-2.91.74-4.29-3.76-2.06Z"/>
</svg>