<?xml version="1.0" encoding="UTF-8"?>
<svg id="Layer_1" data-name="Layer 1" xmlns="http://www.w3.org/2000/svg" viewBox="0 0 737.38 540.31">
  <defs>
    <style>
      .cls-1 {
        fill: #ccc;
        stroke: #fff;
        stroke-width: .5px;
      }
    </style>
  </defs>
  <path id="FR-BFC" class="cls-1" d="m680.33,87.18h0l.21-.93-3.56-1.75.96-1-1.62-3.76h0l-.15-.11h0l-5.77,1.46-2.25,4.31-1.92-.06-1.3,1.95-1.31-.2,1.94-2.76-1.65-.85-2.98,4.79.02,1.8-2.25-.4-1.24,4.8-4.15-.67-1.19,3.63-3.13-.07-.92,3.82,1.83,1.05.2,1.93-1.5,2.24.38,3.45-5.81,1.15-1.81-3.23-2.6,3.16-2.64-1-1.27,1.1-2.62-.45-4.01,7.89-2.04-1.96-4.19,3.29-.98-1.82,1.3-2.36-1.29.53-4.01-3.28.3-2.57-3.77,3.1-2.33-2.28-1.61.28.45-2.47-1.97.27-.04-1.67-3.73,2.24-.61-6.98-2.67-.47,4.74-3.75-2.4-5.4h.19-.81l-2.31-4.74-2.09.3-.54,1.97-1.79-1.14,2.09-2.91-1.22-1.86-3.77-.17,1.52-2.41-1-1.59-3.44.1-2.32-1.76-1.85.92-5.66-1.4-2.64,2.08,1.16,3.56-14.87.62-1.34,3.35-2.97-.47-1.4-1.76.26-2.1-1.95.42,1.11.52-.65,1.88-2.18-1.67h0l-.77.41h0l-2.76,2.68-1.27-1.75-1.82-.07-.96,1.9-2.49-1.6-1.13,1.12-5.66.1,1.16-4.64-1.16-2.01-.9,2.1-1.75-.4-.78-1.93,1.95.14.07-1.15-3.07-2.69-1.92-6.81-3.19-1.36.54-3.08-2.1-.79.52,1.68-3.44,1.49-2.28-4.62-3.18.49,2.61-3.8-1.27-.65,1.13-3.35-2.57-1.42.6-1.54-2.69-1.76-2.48-4.36-2.31-.91-2.38,1.65-.86-2.94h0l-2.39-.91-.67,2.57-1.79.24-3.31-1.1-1.73,1.58-7.05-.75-2.3,2.2-3.47-.97-1.98,5.04,1.99,5.14-2.65,3.96-5.32,2.17,1.49,1.89h0l5.39,2.76-.82,1.59,1.21-.08.86,4.04,4.65,4.01-1.57.95,1.6,1.18.17,3.13-2.06,2.4h0l-.37.3h0l-2.39,2.99-2.53.44.22,3-1.06.58,2.28,1.6-1.19,1.5.75,4.29-10.74,2.71-.25,3.72,2.88-.31v1.53l1.98,2-.45,1.22,2.13,2.14-1.31,1.7.26,2.54,2.47,2.7-6.57,2.05h0v-.33h0l-1.36,1.14,5.11,9.12-3.9,9.09.73,1.98,6.32,5-.21,3.02,3.24,9.73-.79,5.16,3.71,3.67-.87,4.43.98,1.73-1.86,4.35,1.21,5.04-2.33,5.13h0l1.65,3.94,4.39,2.13,4.39,4.59,4.29-3.65,1.94.09.79,2.38,2.07.49,2-2.59,2.56-.11,1.98,2.17.27,3.45,1.83-.07,2.72-3.36.94,1.01.94-.95-.82-3.04,3.06-.14-1.31-2.22.8-1.13,2.24.62.83,4.3,3.68,4.33,1.5,2.88-.51,1.64,1.42.6.35,5.7,3.92,1.78,2.08-1.13,1.86,3.88,5.01-.44.17,1.38,2.9,1.41-1.46,5.67.53,6.23,1.23.13-1.06,1.13-2.54-.62-.14,1.88-3.28,1.37,1.13,3.45-1.18,2.86,5.09,1.04,1.03,2.59h4.81s4.45-2.62,4.45-2.62l1.81,1.91,2.74.3,1.79-1.83,1.09,1.48,1.73-.87-.28,2.57,1.89.13,2.82-2.48,2.72-.07-.64-1.2,1.55-1.23,1.08-7.34,3.21-.12,2.74,2.63,2.09-.27,1.8-2.07.91,2.19,2.1.34,1.15-3.16,2.58-.45,1.86,2.45-1.89,1.75,3.43,2.27-1.02.52.96,1.34-.57,2.88,3.27.33,9.81-30.48.53,1.6,2.03-1.25,4.39,2.74,4.76-2.19,1.89.41.07-1.35,2.06.93,2.04,4.52,4.76,1.03.56,1.6-1.49,1.36,4.71,2.74-.95,1.07,2.52,2.82.06,2.5,1.23-3.33.77,2.89,1.8-.75-.59,4.39,1.02.9,3.95-.37,1.63-2.29,1.81-.13,2.86-4.34.22,1.82,4.07,1.33.7,4.3,8.73-.35,11.82-13.46h0l1.28-2.46-.8-1.7,5.09-7.36-2.81-2.81,9.62-9.5,11.06-8.27-1.29-3.33,2.01-6.9-1.95-3.51,3.93-4.16,7.54-1.68,5.92-5.22-1.66-1.47.66-1.34,8.24-6.04,1.21-1.43-1.06-.63,6.9-6.41-.74-4.04,3.23-.69.83-2.72,2.75-.83-.41-2.59-1.97-.95-8.31,1.81,2.1-4.67,1.45-.15.15-2.46,3.74-1.89-1.14-3.67,2.47-.95,3.16,1.48,3.43-1.36h0l.64-1.97-3.45-6.21-2.71-.69-1.26,1.08-.93-1.23,2.59-7.27-1.99-5.56-9.04-3.62-1.5-3.41-1.07.46-2.26-3.26-8.45-4.9-2.35-3.78-2.63,1.13-1.22,2.71-3.95,1.61-2.59-5.14-2.8-1.73-6.16.45-5.03,2.17v-.49h.01Z"/>
</svg>