<?xml version="1.0" encoding="UTF-8"?>
<svg id="Layer_1" data-name="Layer 1" xmlns="http://www.w3.org/2000/svg" viewBox="0 0 458.81 540.31">
  <defs>
    <style>
      .cls-1 {
        fill: #ccc;
        stroke: #fff;
        stroke-width: .5px;
      }
    </style>
  </defs>
  <path id="FR-BRE" class="cls-1" d="m96.03,137.31l1.83.84.19.46,3.57.84,1.09,3.18,4.83,1.37-.83,2.54-1.09.77-4.7-2.15-3.09.79-1.22-.91.12-2.27-1.66-2.23.95-3.23ZM97.46.45l1.16,2.01-.84,1.32,8.3-3.37-.87,3.54,1.81-.27-.93,1.26,4.55-.28.48,2.19-2.44,1.83.85.41,2.49,1.22,2.38-.83,1.39,1.51-1.02,3.26,7.93,6.74-.3,4.99,6.7,3.68-1.65,2.91,1.75-.74,2.4,4.17-.54-4.17,3.42.98-.38-1.42,4.89-5.84,5.01-2.14-.92-2.1,3.17-.71,1.07,2.19,6.27-5.54.44,1.56,1.72.33-3.31,4.51,1.42.93,4.36-3.2-.15,2.69,2.18,2.66.89-2.22,1.04,3.23,1.57-.93-1.12-.95,1.33-2.02,1.6,1.62-1.7-3.06,2.46-1.07.98,1.12,3.04-.55-.47,1.2,1.72.74-.59,1.72,1.09-.42,1.38,2.02-1.11,1.02,2.61,2.59-1.44,2.02.66,2.51,1.26-2.87.61.37.81-1.34-1.7.09.61-1.35-1.68-3.17,2.43,1.3-.84-1.99-2.42-.88.15-1.37-2.2-1.8.16-1.5,3.06-2.17-.63-1.5h3.43l-1.44.1,1.51-1.23,1.84,1.16,3.82-2.12.48,3.07-1.65,1.15-.38,2.71,1.61,2.15,3.98,1.03,12.74-2.84h0l5.16,13.56,2.36.19,1.8,2.44,4.17-.75,1.57-2.79,3.06-.99,1.57-3.2,11.38,3.33h0l-.69,8.72,2.22,7.97-3.47,5.81,1.39,5.83h0l.26.23h0l1.47,10.19,1.82,2.02-.74,3.41,1.04,2.66-2.06,1.74-4.59-.2-.1,1.41-1.82.58-1.33,6.14-1.22.71.56,2.09-2.13,1.48-1.55,6.9-7.21-2.07-1.54-2.67-5.61-.66.36,2.97-9.22,3.62-2.34,4.95-6.81,1.11-5.58-1.03-5.87,3.42-1.13-2.05-2.43,2.56-1.71-.25-.74,1.81-1.83-.1-1.02,1.71,1.03,1.81-1.19,1.57.17,5.6-3.67,1.03-.39,2.91-1.58-.47.25-1.62-3.71,1.65-.89-1.78-2.43-.2-1.17,5.04-5.22.44-1.34-1.89-2.13,2.64h0l-2.33-.18-.38-3.84,3.76-.57-4.25-2.37-6.96,1.84-.53-1.41-1.63.12-1.52,2.25-2.76-1.13-5.53,1.81-2.14-1.09-1.48-3.18-1.92-.16-.4-1.69-2.86-1.06-.34,1.05-1.55-1.15-1.97-.12-1.26-1.04-5.14.85-.28,5.1,2.98,4.11-3.19-.4-1.94-5.12,1.7-1.42-.89-4.64-8.45-8.23-3.3-.93-1.31.88-.33-2.28-5.43,1.38-4.56-6.24-9.39-1.14-3.01-2.65h-2.13s-5.74-.01-5.74-.01l-2.92-2.7,1.26-2.22-1.14-.16-1.89-1.02-.97-2.85-2.65,1.76.9,2.65-4.13,1.07-3.98-2.63-2.53,1.36-2.78,6.23h-10.9l-.98-2.26,2.29-1.79-.72-5.02-3.89-6.87-5.55-3.94-2.36-.59-1.24,1.09-3.92-2.66-4.02.25-2.45-1.21,1.86-.42-.48-1.94,10.03-1.08,1.02-1.29,3.08.31,4.31-1.87,3.34-.23,3.55,1.87,2.34-3.76-2.99-6.86-3.55-.18-.32-1.19-5.28-1.88-2.17.63-1.17,3.68-2.54,2.05.41-3.66-1.23-2.29,1.78-1.35-1.03-.95-3.81.46-.41-2.34,3.63-.23-.1-4.51,2.43-.96-1.47,3.56,1.27,1.74,1.04-1.08.99,1.37,3.15-1.47,2.04.23,1.27,1.8,5.63-2.14,2.21.16.66,1.48.81-1.77-5.54-1.47,2.13-1.45-1.78-.85.84-2.11-3.04,1.62-.37,1.73-2.73.16,1.22-1.63-3.77,1.46,3.6-5.26-1.46-1.16-.79,1.32-2.39-.31-2.9,1.85-5.29,2.47-4.55-1.59-1.65,2.22-4.04.19-1.09-2.97,1.78-1.96-2.07-2.87,2.11-5.01-.98-4.49,2.9-3.79,1.59.48.03-1.77,5.77-.61.28-2.58,2.61.58-.33-2.1,1.7-.34-.04-1.2,2.67,1.47,3.63-1.89,2.42.37-2.19-1.61,5.61-2.12,3.09,1.18-.98,2.15,1,.75,1.34-1.47,4.88-.23-1.68-.63,2.23-2.64,5.35-.79,2.53,1.79.37-2.77,2.42-.68.4-1.33.39,1.47,1.91-1.46-.38,2.71,1.14.93-.87,1.34,2.49,1.06.48-1.02h4.55v-1.48l1.15-2.35.5-.45,2.36,1.76,3.17-.66,3.34,2.01,2.23-.91-.91,3.48,2.2-2.56.81,1.54,1.74-.06.91-1.29-2.59-.63v-3.15l3.75-1.94-3.75-1.13v-3.08l1.49-.42v-1.1l1.17-.14.72,1.5,1.21-.97-.37-1.95,1.26.28,1.02-1.84.81,1.78.67-1.61,1.32,2.05,1.92-.5-.79,2.14,2.64-.19.55-1.45,4.28-2.12,3.51.37,2.4-3.1Z"/>
</svg>