<?xml version="1.0" encoding="UTF-8"?>
<svg id="Layer_1" data-name="Layer 1" xmlns="http://www.w3.org/2000/svg" viewBox="0 0 889.25 657.97">
  <defs>
    <style>
      .cls-1 {
        fill: #ccc;
        stroke: #fff;
        stroke-width: .5px;
      }
    </style>
  </defs>
  <path id="FR-COR" class="cls-1" d="m840.04,638.89l1.81-4,.95.99,3.28-1.43,2.67-3.37-6.42-2.19-1.89,1.2-.42-3.42-4.2,1.62-.14-1.45-2.83-.1,4.44-2.98-1.14-2.13,3.7-.78.74-1.73.29-1.49-.61-2.68,1.52-1.04-3.4-3.14-1.8,2.09-4.78-.18-2.11,1.37.95-3.42-1.89-2.5,3.45-.29,1.27-1.19-.55-2.45,5.39-3.09-1.74-1.15-1.19-4.06-2.52.98-2.92-2.84-1.94.55.27-1.95-1.51-1.65,1.49-.62-.24-2.22-.49-1.87-2.04-.78,9.58-2.44-2.14-2.98-3.46-.27-.41-1.13,1.88-1.09-.82-1.47-3.84,1.33-.51-3.45,1.52.51,2.47-1.45-.21-2.5,3.08.08.55-1.6-.97-.66,1.96-2.21-1.93-.81,1.11-3.1,3.32-.8-.87-3.7,1.21-1.27.1,1.95,1.71-.84,2.09,1.5.82-4.09,4.02-.49.74-1.74,3.3-1.46.93,1.09,4.2-.64,2.8-1.68-.16-2.95,4.15-2.95,6.01-.31,4.75,4.92,2.85-4.98-.14-4.95-2.05-3.21,1.91-2.75-1.14-2.88,2.43-2.02-1.31-5.89,5.14-1.46,2.51,2.11-.75,2.01,2.57,13.1-2.91,11.06,5.97,10.65v14.84l1.49,7.35v7.24l-1.07,7.64-8.49,12.45-1.11,12.76.77,7.05-2.09,2.86.86,2.76-2.74,1.1-2.1.3-1.82,2.65.56,1.76,1.9-2.48,3.16.87-1.59,2.91-4.31,2.36.29,5.45-3.43,1.78.25,2.07-1.11.33.82.76,2.66-1.99-.37,1.2-2.39,3.89-2.55.19-1.41-2.31-3.94-.15,1.68-3.58-3.14-.54.59-3.02-2.47,2.01-2.54-2.74-.94,1.33-1.4-1.54-2.51.28-2.74-2.9-2.07.54.68-2.4-4.12-.73,1.05-1.57-1.8-1.49Z"/>
</svg>