<?xml version="1.0" encoding="UTF-8"?>
<svg id="Layer_1" data-name="Layer 1" xmlns="http://www.w3.org/2000/svg" viewBox="0 0 803.49 664.5">
  <defs>
    <style>
      .cls-1 {
        fill: #ccc;
        stroke: #fff;
        stroke-width: .5px;
      }
    </style>
  </defs>
  <path id="FR-GES" class="cls-1" d="m801.13,114.62l-6.48-2.1-2.5-2.29-4.55-1.27-2.59-2.86-.85,1.53-1.9-.66-1.34,1.43-4.37-3.04-3.57,2.1-.18-1.22-3.56,1.13-2.44-.95-.1-1.73-6.27-2.29-2.06-6.75-3.54.41.55-1.81-4.84,1.17-.15,2.66v-.03s-1.98,2.7-1.98,2.7l-2.96-1.41-2.99,1.39-.84-1.42-1.65.92-1.95-2.04-1.32.26-.3-1.57-1.14.7.42,1.75-2.22,1.47-1.08-7.25-1.35.3-2.39-2.11-.81.66-1.32-1.9-2.8,1.28-2.02-1.28-1.37.95,1.48,3.01-1.64,2.61-3.43-1.46-2.54.41-1.67-2.18.75-2.93-1.75.23-.39-3.19-1.77-.87.57-2-3.46-2.04-2.9-4.3,2.08-1.77-3.77-3.47,1.07-1.68-.91-1.16-7.13-4.22-2.07,1.19-1.6-.62-.16,1.04-1.86-.71-5.81-4.43-5.21.94.27,1.11-2.04-.07-1.67,3.76-2.65-1.25-.96,1.81-3.81-.38-.84-3.98-6.02-.51-2.06-2.15.12-2.02-1.22.52-2.75-2.47-1.67,2.3-6.4-1.06-1.91,4.07-3.38-2.16-5.18,3.05-2.67-9.33-5.03-3.32-2.1,1.88-.47-1.74,1.56-2.33-3.84-4.05-1.63,1.07-4.73-.76-.25-2.14-2.15.22-2.05-4.72-5.29-1.84-.82-1.72-5.52,1.37-3.36-.69,1.43-2.55-1.71-4.51,2.54-4.1-2.53-3.71-3.48-.95-.09-1.02,3.19-6.65-1.3-2.58,1.11-.21.8-3.31,1.29,1.31-.27-3.05,1.77-1.64-4.29-3.05-8.22,8.02-.06,8.57-5.84.85-4.53,3.46-4.83,1.27-8.42-3.05-4.81,1.01h0l-.89,4.32,2.35.95-.14,3.41-2.91,8.45,2.7,2.2-4,5.54-3.64,2-.69,4.29-4.57-.45-1.08,1.51,3.36,4.85-1.74,2.5,1.62.28.2,1.65-2.34,1.68v4.42l1.13,2.11-1.13.68v7.42l-5.63-1.63-2.21-2.78-4.23,2.51-.27,3.35-4.54-1.09-8.21,4.05,1.27,4.23-.85,1.41,1.61,1.81-1.5,2.08,1.75,1.49,1.03-.93,1,2.84,2.12-.41-.04,2.09-2.69,1.57-1.16-1.11-3.97.35-1.33,2.91,2.31,4-3.17,1.59-.11,2.19,4.05-.58,1.68,2.72-2.25.94-1.27,3.56-1.91.57.81,1.62-1.82.34-.21,2.32-2.62.24-2.64,5.61h0l.11,3.58-5.17.49,2.35.52.12,1.19-2.14.6-.9,2.39,4.57,1.89.52,3.71-2.28,3.22,1.21,1.04-.52,1.62,5.15-1.05-.88,1.26,2.43,1.52-3.59,1.09.77,1.39-3.05,1.8,1,2.69-4.61,1.28,1.95,3.48-3.38,1,1.4,2.47-.87,2.66,1.89.86-.47,2.38h0l.86,2.94,2.38-1.65,2.31.91,2.48,4.36,2.69,1.76-.6,1.54,2.57,1.42-1.13,3.35,1.27.65-2.61,3.8,3.18-.49,2.28,4.62,3.44-1.49-.52-1.68,2.1.79-.54,3.08,3.19,1.36,1.92,6.81,3.07,2.69-.07,1.15-1.95-.14.78,1.93,1.75.4.9-2.1,1.16,2.01-1.16,4.64,5.66-.1,1.13-1.12,2.49,1.6.96-1.9,1.82.07,1.27,1.75,2.76-2.68h0l.77-.41h0l2.18,1.67.65-1.88-1.11-.52,1.95-.42-.26,2.1,1.4,1.76,2.97.47,1.34-3.35,14.87-.62-1.16-3.56,2.64-2.08,5.66,1.4,1.85-.92,2.32,1.76,3.44-.1,1,1.59-1.52,2.41,3.77.17,1.22,1.86-2.09,2.91,1.79,1.14.54-1.97,2.09-.3,2.31,4.73h1.85l2.34,5.42-4.64,3.77,2.62.47.59,7,3.65-2.24.04,1.67,1.92-.27-.44,2.48,1.58-.28,2.28,2.29,3.69-3.11-.3,2.58,3.92,3.29,1.26-.53-1.27,2.37.96,1.83,4.1-3.3,1.99,1.96,3.92-7.92,2.56.45,1.25-1.1,2.59,1,2.54-3.17,1.77,3.25,5.68-1.16-.37-3.46,1.47-2.25-.19-1.93-1.79-1.05.9-3.83,3.06.07,1.16-3.64,4.06.67,1.22-4.82,2.2.41-.02-2.31,2.98-4.83,1.65.86-1.94,2.78,1.31.2,1.3-1.97,1.92.06,2.25-4.35,5.77-1.47h0l.15.11h0l1.62,3.78-.96,1.01,3.56,1.77-.21.93h0v.48h0l5.04-2.19,6.16-.45,2.8,1.75,2.6,5.18,3.95-1.62,1.22-2.73,2.63-1.14,2.36,3.81,8.46,4.94,2.26,3.28,1.07-.46,1.5,3.44,9.04,3.65,1.99,5.6-2.6,7.32.93,1.24,1.26-1.08,2.71.7,3.45,6.26-.64,1.99h0l4.2.82-1.92,4.6,3.77.42.66,1.65,5.17-1.83,3.5.83,4.18-3.55-2.1-.86.63-1.36,3.47,1.18,1.37-1.44-.82-2.05,1.51.54.49-1.21-1.91-1.06,5.1-3.31.5-2.64-4.14-5.21-.7-3.33,2.2-3.34-1.1-4.2,1.96-5.72-.33-3.49,3.98-8.59-3.2-5.76.44-8.01,5.43-9.4,1.61-7.46,3.13-2.36-.75-6.26,2.17-8.94,2.28-2.29-.36-6.49,2.36-5.34,7.56-7.6.48-3.3,2.65-.3.85-2.4,3.62-1.55,3.61-9.6,4.75-6.61-1.67.64Z"/>
</svg>