<?xml version="1.0" encoding="UTF-8"?>
<svg id="Layer_1" data-name="Layer 1" xmlns="http://www.w3.org/2000/svg" viewBox="0 0 560.62 754.01">
  <defs>
    <style>
      .cls-1 {
        fill: #ccc;
        stroke: #fff;
        stroke-width: .5px;
      }
    </style>
  </defs>
  <path id="FR-HDF" class="cls-1" d="m556.66,110.91l-.18-1.35-2.84-.58,1.01-2.32-1.61-1.78,1.58-2.85,4.24-1.93-2.04-3.47.17-2.93h-4.44l1.65-2.65-.27-4.8,4.36-3.85-.79-1.86-2.86-1.65-.78,1.37,1.08,1.51-1.95.03-1.27-4.34-2.48-.7-3.16-4.59-7.49,3.06-3.17-2.4-5.78.09-2.47,4.5-3.11-6.3,1.04-3.25-.94-5.22-3.25-3.86-6.75.86,1.14-3.55-2.75-.94-1.71,2.61-4.45,1.5-5.28-3.25-.78-6.94-2.48-6.16,1.62-1.81-.29-2.48-4.33-2.31-2.5-6.38-2.44-.41-1.52,2.09-4.53-.13-3.91,2.21-2.88,5.88-3.73-3.02-1.81.69-1.76-1.07-4.14-8.25-3.39-1.15-2.08.95-2.23-3.67.58-4.79-1.16-2.13,2.6-2.74-1.54-4.24-2.09-1.22-1.87-8.58-10.18,4.19-1.73-1.25-9.26,3.18-2.19.58-1.28.03-3.12,1.62-14.33,3.42-7.86,2.55-5.22,5.76-5.01,1.47,2.03,6.65-1.23,7.03-1.13,1.55-.57-2.36-.25,1.45.86,15.39,3.67,5.5-3.02-2.46-2.02,13.48,4.38,3.27-4.3.53-1.13,7.7.9,2.37,2.44.2,1.99,4.06,3.41.51.7,2.03-1.82,1.32-2.97-1.83-1.48.63-1.92-2.13-2.15.19-2.45,3.24-1.95,6.34-4.64,4.29h0l1.92.71,2.53-1.27.22,2.96,16.21,14.78,1.38,6.94,3.23,5.07-2.29-.1-.19,2.34-2.05.43.08,2.65-1.61,1.17,1.07,1.35,2.37-2.06.46.71-3.38,4.87,1.49,2.02-1.7,2.13,1.62,1.67-1.2.12h-.27l2.08,2.03-.29,1.69,1.48.54-1.94,3.3,1.71,1.38.91-2.13,1.93.76-1.14,3.25h0l-.6.39h0l-2.33,2.43-.7,3.16,1.61.17-1.15,1.18,2.47,2.61.71,7.13,1.58.17.39,1.47-.93,2.72-1.95-2.51-3.04.74-.35,3.15h0l.61-.88,1.64,1.59-1.58,1.66.79,1.14h0l.57-.02h0l1.13,1.86,3.06-.93.54,1.12,1.54-.3-.09,1.19,2.65-1.06.34,1.19,5.8-1.97,1.62.73,4.94-3.29.95,1.93,2.04-.35.46,1.4.73-.9,1.42,2.38,2.99-1.51,1.04,1.27-1.14,1.09,1,.32,3.27-.81,1.77-2.54,2.74,3.65,1.09-1.1,4.06,1.25-.37,1.24,1.62-.71,2.73,2.19-.84,1.08,2.62.62,1.26-2.35,1.94,4.24,3.09-2.72,3.65,3.98,1.82-.88.84,1.4,2.7-.91-.54-1.19,2.49-1.3,2.72,2.51,3.03-1.32,2.54.68,1.73-1.38,1.17,1.95,1.34-1.95,3.6.61.21-3.03,4.27,1.04,1.63.71-.71,1.53,2.32,3.08-1.46,3.6,5.25,3.78.83,3.19,2.5-.94,1.5,3.85,2.42-1.91.96,5.34,3.91,1.1.97,2.15,1.5-1.39h0l2.67-5.66,2.65-.25.21-2.34,1.84-.34-.82-1.63,1.93-.58,1.28-3.6,2.27-.95-1.69-2.74-4.09.59.11-2.21,3.2-1.61-2.33-4.03,1.34-2.93,4-.35,1.17,1.12,2.72-1.58.04-2.11-2.14.41-1-2.87-1.04.94-1.77-1.51,1.51-2.1-1.62-1.83.86-1.42-1.28-4.27,8.28-4.09,4.59,1.1.28-3.38,4.27-2.53,2.23,2.8,4.82,1.64v-8.32l1.13-.68-1.13-2.11v-3.72l1.79-1.68-.2-1.65-1.62-.29,1.74-2.5-3.37-4.85,1.08-1.51,4.59.45.69-4.29,3.64-2,4.01-5.54-2.71-2.2,2.92-8.45.14-3.41-2.35-.95.89-4.31-2.24.25Z"/>
</svg>