<?xml version="1.0" encoding="UTF-8"?>
<svg id="Layer_1" data-name="Layer 1" xmlns="http://www.w3.org/2000/svg" viewBox="0 0 515.64 575.45">
  <defs>
    <style>
      .cls-1 {
        fill: #ccc;
        stroke: #fff;
        stroke-width: .5px;
      }
    </style>
  </defs>
  <path id="FR-IDF" class="cls-1" d="m403.24,1.27l.59-.88,1.59,1.59-1.53,1.66.77,1.14h0l.55-.02h0l1.09,1.86,2.95-.93.52,1.12,1.48-.3-.09,1.19,2.56-1.06.33,1.19,5.59-1.97,1.57.73,4.77-3.29.92,1.93,1.97-.35.44,1.4.71-.9,1.37,2.38,2.89-1.5,1,1.27-1.1,1.09.96.32,3.16-.81,1.71-2.54,2.64,3.65,1.05-1.1,3.92,1.25-.36,1.24,1.57-.71,2.64,2.19-.81,1.08,2.53.62,1.22-2.35,1.87,4.24,2.98-2.72,3.52,3.98,1.75-.88.81,1.4,2.6-.91-.52-1.19,2.4-1.3,2.63,2.51,2.92-1.32,2.45.68,1.67-1.38,1.13,1.95,1.29-1.95,3.47.61.2-3.02,4.12,1.04,1.57.71-.68,1.53,2.24,3.08-1.41,3.6,5.06,3.78.8,3.18,2.42-.94,1.45,3.85,2.33-1.91.92,5.34,3.77,1.1.94,2.15,1.45-1.39h0l.1,3.61-5.04.49,2.29.53.12,1.2-2.09.6-.87,2.41,4.45,1.91.51,3.75-2.22,3.25,1.17,1.05-.51,1.64,5.02-1.06-.85,1.27,2.37,1.54-3.5,1.1.75,1.4-2.97,1.81.97,2.72-4.49,1.29,1.9,3.51-3.29,1.01,1.36,2.49-.85,2.68,1.84.86-.45,2.4h0l-2.33-.92-.66,2.59-1.74.24-3.23-1.11-1.69,1.59-6.86-.76-2.24,2.22-3.38-.97-1.93,5.08,1.94,5.18-2.59,4-4.04,2.18,1.49,1.18h0l-4.72.64-2.9,2.43-1.12-.17-.14-3.43-2.23,1.42-1.64-1.23,1.11,1.98-3.02,2.02-9.05-1.62-2.33,1.18-5.23.03,2.38-3.77,1.41.77.66-.98-.03-5.43-2.81-2.66-2.8-.47-1.18-5.19-2.72.73-1.88-2.34-1.44,1.31h0l-.31.61h0l-1.91-.26-1.31,1.55.03-2.15-2.57-1.13-1.31,3.06-1.78-.43.71,1.63-3.54-.78-3.85,2.1-4.12-.35-.88-2.04,1.19-.25-.55-2.67,1.19-2.05-1.36-1.59.71-1.97-2.98-.41.14-4.79-1.39,1.6-2.26-.04-1.57-.59-.47-1.91-2.07.05-1.56-4.38.69-3.8-1.8-1.95-2.89-.25.36-3.53-2.95.03-1.43-3.36-2.42-1.42.62-2.24-2.13-1.33,3.01-4.15-2.74-1.35-.13-6.6,1.14-.82-1.29-.49.46-1.44-2.34-.98,1.05-1.9-3.73-4.73h0l-.53-2.54,1.61-1.08-2.94.25.49-3.61-1.83-3.75.87-.99,1.56,1.26,1.27-3.32.65,1.54h.32s5.81-1.54,5.81-1.54l2.11-4.35,1-7.58,1.8-1.94Z"/>
</svg>