<?xml version="1.0" encoding="UTF-8"?>
<svg id="Layer_1" data-name="Layer 1" xmlns="http://www.w3.org/2000/svg" viewBox="0 0 458.81 655.31">
  <defs>
    <style>
      .cls-1 {
        fill: #ccc;
        stroke: #fff;
        stroke-width: .5px;
      }
    </style>
  </defs>
  <path id="FR-NOR" class="cls-1" d="m408.62,58.03h0l1.15-3.26-1.94-.76-.92,2.14-1.72-1.39,1.94-3.32-1.49-.54.29-1.7-2.09-2.04h-1.17.27l1.19-.12-1.61-1.66,1.69-2.12-1.48-2.01,3.36-4.84-.46-.71-2.36,2.05-1.06-1.34,1.6-1.17-.08-2.63,2.03-.43.19-2.33,2.28.1-3.21-5.03-1.37-6.89-16.11-14.69-.22-2.94-2.51,1.26-1.9-.7h0l-11.37,9.19-6.87,3.35-4.05,1.83-3.66-1.06-11.62,4.92-11.56,1.74-15.51,10.52-8.06,3.23-2.66,2.55-.46,2.39-.24,1.57-5.42,12.66,1.58,2.9,4.58,2.82,6.62,1.36,1.47-1.13-.7,2.04-3.74.12-5.99,2.52-7.96,7.27-5.29,2.62-8.45,1.57-1.59-.68-1.94-.45-7.14-3.84-22.42-1.51-13.03-4.61-6.79.72-2.71,2.83.15,1.53-2.43-1.79-2.92,2.66,2.17-6.9-8.86-13.39.71-3.3,1.6-.3,1.07-2.64,1.62.56-2.25-8.54-6.48-1.01-6.44.94-.86,2.75-2.89,1.31-4.64-.25-4.67-.9-4.92-1.1-3.77-1.19-1.64-2.58-2.18,1.14-3.48-1.95-.37,4.89,4.47,1.52,1.66,2.67.5,5.76-2.93,3.52,2.47,2.88,2.38,12.5,1.38-.28,4.98,4.46,1.32,3.79,3.68,7.54.78-.83,1.38,7.78-1.07,3.16.63,6.07,1.34,3.6,1.27-2.49-.32,8.03.72.77-.69.73-1.36,7.22-1.87,1.28,2.48,1.25.38,7.33,2.51,1.26,1.8,4.37,2.97,1.16.17,1.52,3.81-1.91-1.57,1.54,3.61,2.51-4.47-.99-4.02,1.88-1.27-1.4-.07,1.64-3.7-1.34h0l5.18,13.6,2.37.19,1.81,2.45,4.18-.75,1.57-2.8,3.07-.99,1.58-3.21,11.42,3.34h0l4.07,1.77,1.94-.48,1.07-2.14,2.91,1.92,3.95-.25,1.96,4.12,2.17-.94,1.17,2.73,2.87-1.3-1.04-2.19,2.58.49,1.57-1.59.75,3.85,3.35-2.56,2.87-.15,2.56-3.34,7.03-.09,2.71,2.4,1.99-3.57,3.09,1.4,1.86-2.71-1.34-1.16.86-1.46,2.6.07,3.85,3.33-1.76,1.63,1.68,5.01,5.97.53-.02,8.37,3.14-2.15.96,1.56,2.74.3.83-2.91,5.38-3.09-.78-1.51,1.84.64-.09-1.37,8.06-1.47,3.44,2.04,1.66,3.24-.77,1.23,1.39,8.47,5.47,2.19.64-1.09.21,2.4,2.67,3.37,5.55.26.94,1.21-.46-2.16,1.39-.73,1.9.87,3.39,6.23,1.41.73,2.33-1.3h0l2.05-1.81-2.64-4.44,1.13-2.65-3.19-.99.92-2.14,1.1-1.77,7.94-2.98,3.87-6.39-2.24-1.49-.26-1.91,1.23-.56-.83-1.67,1.52-2.22-2.65-1.26.95-1.2-.84-1.01-4.68-2.1-.27-2.56-1.9-.49.94-1.8-1.41-2.81,3.41-2.29.8-2.64,2.87.62,4.18-1.54h1.3l1.59-.26,1.79-2.87,3.27,1.12.38-4.06,6.34,2.98,1.33-1.15.83,1.2,4.72-.36,2.51-1.9-.65-5.06,6.16-3.56.69-2.38-1.46-2.54,3.34-1.58h0l-.55-2.55,1.67-1.09-3.05.25.51-3.63-1.91-3.77.91-.99,1.62,1.27,1.32-3.33.68,1.55h.33s6.05-1.55,6.05-1.55l2.19-4.38,1.04-7.62,1.87-1.95h0l.35-3.16,3.06-.74,1.96,2.52.94-2.73-.4-1.48-1.59-.17-.71-7.16-2.48-2.62,1.15-1.18-1.62-.17.7-3.17,2.34-2.45.6-.39Z"/>
</svg>