<?xml version="1.0" encoding="UTF-8"?>
<svg id="Layer_1" data-name="Layer 1" xmlns="http://www.w3.org/2000/svg" viewBox="0 0 458.81 540.31">
  <defs>
    <style>
      .cls-1 {
        fill: #ccc;
        stroke: #fff;
        stroke-width: .5px;
      }
    </style>
  </defs>
  <path id="FR-NAQ" class="cls-1" d="m218.94,262.98l1.47.59.1,4.89,3.02,3.9.07,2.22-1.33.86.79,1.88-2.22,2.59-2.35-7.2-7.29-6.46-1.64-8.3,2.65.72,3.4,3.99,3.33.32Zm-16.85-19.29h4.44s8.63,5.03,8.63,5.03l2.71.14,1.69-1.67-1.36.28-1.18-2.5-4.54-1.9-3.71.67-.88-1.1,1.65-1.48-2.79.2-2.52,1.39-1.33-1.52,2.9-.3-1.48-2.16-3.87,1.1.27,1.16,1.39,2.66Zm235.83-19.37l.43,3.43,2.89.82-1.96,2.59,3.88,2.93,1.41-1.89,2.1,4.32.62-1.16,3.14,1.42,2.7,8.28,2.48,2.84-.97,6.17,1.33,3.45,1.86,1.09-.54,3.89,1.15,1.71-2.91,1.36-1.24,2.17.76,1.65-3.5,2.4-.47,2-1.96-.27h0l-.28.06h0l-1.62,2.81-1.72-.36-.87,1.18,3.41,5.87,2.57.91,2.4,3.41-.12,6.01-2.21.12-1.54,3.94,1.73,3.1,1.76.59-1.87,11.89,2.52,2.38-2.97,1.94-5.8-3.66-2.37-.02,1.25,2.16-.55,4.45-2.7,1.33-1.67,2.92-1.24-.26-1.77,3.74-2.9,2.38.43,3.53,1.94,1.39-3.26,2.49-.41,4.81-1.85-.38-2.75,2.32,2.75,5.11-2.06,1.72h0l-.51-.13h0l-2.47.64h0l-4.66.15-2.35,1.91-.46-1.81-2-.39-6.56,4.79-3.19-1.26-.04-1.7-2.68-1.1-1.45-3.05-3.21-2.49-3.47-.76-1.83,1.01-.63-1.5-7.77,3.68h0l.26,1.03h0l1.74,6.7-1.78.52,1.73,2.78-4.84,3.11.26,2.83-4.19,1.31-.05,1.75,1.55.97-.41,2.12-1.03-.3-.74,2.38-1.06-.54-2.86,3.36-4.67,1.19.37,2.69-3.66,3.94.59,1.74-3.67,1-1.84,2.15-2.08-.61,2.19,3.22.03,5.3,2.35,1.55.35,5.26-6.8.34-.65,1.42-1.3-3.34-1.5.25-1.68,6.11,1.5,1.22,1.4-.56,2.15,2.4-1.39.65-1.35,6.53-3.31.56.38,1.13,1.6-.35.54,3.19-1.99.97-4.53-1.46.55,2.79-2.58.32-1.09,3.92-4.74,3.2-4.4-4.8-2.3,2.16-5.9-.08-1.16,2.34-3.83,1.94-4.12-.26-.88,1.61-4.44-1.71.11-.98-2.43.6-2.19,3.61-1.85-2.47-4.42,3.46,1.27,3.82-1.06,1.76-4.97-2.81,1.73-2.13-2.67-2.59-.58,1.99-2.99,1.12-.13,1.67-1.89-1.27-2.06,1.32-1.24-.97-3.73,3.57,3.31,2.5-1.38.91.94,4.07-2.06.15.49,4.93,1.49,1.12-3.43,2.57.48,4.47-1.32.21.03,1.36-1.18-.56.14,2.09,2,.22.54,2.82,3.82-1.16,1.03,1.35,3.98-.14.17,3.28,1.7-.4,1.62,3.02-.61,1.76,1.96,1.67-2.95.76-.33,2.37,1.27,1.38-1.03.68,1.52.05,2.62-2.98-.18,6.19,2.07,2.21-1.21,1.77-2.29-.32-1.22,2.35,1.8,2.62-1.99,4.4-1.48-.36.33,3.89-2.38.88-.7-1.13-1.78,4.31-2.92,1.24-.37,3.99,1.17,1.27-5.02,1.23.08,1.91-1.78.77.42,6-2.88,1.4.88,5.71h0l-5.06,4.24-2.99.29-3.94-2.68-2.84,4.15-7.85-8.99-3.34-.99.13-4.1-1.5-1.91-3.38,1.42-6.04-1.06-2.34.88-10.62-5.96-1.73,1.35-1.33-2.3-4.04-1.69-2.09.99-2.89-2.1,2.37-4.21-4.55,2.02-.6,5.57-5.35-1.49-2.06-3.55,3.65-3.32,2.01-5.19-.4-5.81-9.1-3.04-1.71.47-.84,3.27-1.99-.2-.99-4.65-2.8-.7-3.73,1.6-.51-2.89-3.07-1.73,1.03-1.22-1.14-.75,6.88-2.02.65.76,4.18-3.8,9.55-18.23,9.29-48.14,2.48-28.65,3.91-9.93,2.67-.36.63,1.83,6.49-.49,1.99,1.01-.85-3.71-3.21-1.51,2.22-.03-8.29-6.88-.39,2.64-3.66,4.52-.88,6.77-.94-1.54,6.17-58,.32-15.57,3.88-7.11,2.08-1.52,1.31,3.29-.83.52-.83,1.64,8.36,6.28,7.94,8.25,7.17,22.61,5.08,6.38,1.52-.1-5.19-9.51-3.05-17.76-4.19-11.65-8.18-7.79-3.44-.98-3.32-5.48-4.71-1.53-6.6-4.98-1.25.26,1.21,1.85-.92.04-.92-1.79-.09-7.44,6.46-1.51-2.82-4.5,3.97-.51,2.49-4.36-.14-2.6-.08-1.12-.33-2.66-.71-1.22,2.68-.89-3.06-8.27-2.6-1.03.88-1.84-2.81-.97,1.48-1.73-3.54,1.06-1.95-1.65,2.07-1.96.26-2.35,5.62-4.34-1.43-3.82,1.13-1.28h0l2.56-.06,1.33-2.94,4.93-.15,2.8-1.76-1.97,4.37,1.85,1.12,2.79-1.49,2.28.85,1.18-2.22h0l.27.39h0l1.73-.4-.17,1.55,5.02,2.03,1.5-2.1,3.14.76.55-1.93,2.1-.63.27-1.32,2.61.03,1.22-2.29-4.15-2.61-.92,2.02-1.3-.57.23-3.1,1.81-2.07-2.44-5.91,2.72-1.08-1.46-3.89.81-4.18-2.67-1.32,1.35-2.45-2.66-2.07,1.46-1.26-3.97-5.01.14-3.38h0l-.06-.37h0l1.25-1.15-1.64-1.06h.41-.4l-2.22-1.49h.76-.25l-3.38-3.98,1.4-3.2-3.14-1.19.7-.97-1.84-.05.89-1.44-.81.51-1.16-1.62,2.65.42.56-1.78,2.11.22,1.28-1.61,4.42,1.9,2.17-.33.52-1.39,4.34.56,3.36-3.17-.77-2.81,3.75-1.73,2.13.17-1.32,2.51,1.39-1.38,3.08.2.67-2.18,3.42.38,4.54-1.67,3.71,1.02,1.24-1.26,2.52.44-2.22,2.96,3.03,1.43,1.65-.91.97-3.24,3.05,1.26-.25-2.44,2.02-4.13,1.61-1.34,2.17.98h0l1.53,1.61.06,2.38,3.64-.53-.32,1.59,1.66.56,1.2-1.26,1.11,2.1-1.31,2.9,2.11.45,1.95-1.56,1.33.36.07,2.21,2.11-.76.58,4.7-1.29.71,1.96,5.32,2.53-1.67,4.45,1.78,4.08-2.61,5.63.15-1.85-4.35,3.03-.12.99,1.91,3.5,1.09.78,6.26,2.91,3.87,2.66.89,1.15,5.36,5.93,5.51.88,2.9-1.42,1.28.76,2.57-1.47,1.86,1.1,2.49,3.22,2.64,3.08.37.34,2.72,5.31-.04,3.19,2.63.4,5.25,2.3.68-.3,1.14,1.79-.48-.96,2.86h0l-1.13,1.51h0l.76.74,1.17-1.21.58,2.17,2.49-1.11,2.77.6.6-2.09,2.53-.44,3.8,4.8,6.85-7.21,1.17,3.05,4-2.58,1.18,2.98,3.53-2.72,2.69,2.52,1.92-3.14-.77-2.23,2.2-.55,3.47,2.76,2.84-1.43,2.92.94,2.9-1.06,6.79,2.95,6.69-1.65,5.19.79Z"/>
</svg>