<?xml version="1.0" encoding="UTF-8"?>
<svg id="Layer_1" data-name="Layer 1" xmlns="http://www.w3.org/2000/svg" viewBox="0 0 597.18 577.55">
  <defs>
    <style>
      .cls-1 {
        fill: #ccc;
        stroke: #fff;
        stroke-width: .5px;
      }
    </style>
  </defs>
  <path id="FR-OCC" class="cls-1" d="m584.72,413.3l1.46,4.73,2.11.1.89,2.31-1.02,6.83.95,2.27,4.08,1.36,3.59,6.57-1.42.09.02,1.94-10.7,8.26,1.6,1.86-1.52,1.21.53,4.17-2.41,4.81.94,3.41-5.45-1.84-3.39.84-3.7,6.24,2.84.99-.65,1.97-7.95,4.59-.63.65-5.09,2.46-.66,3.35h0l-5.92-2.19-.99-1.99,1.25-1.92-1.99-1.77-8.22.57-3.13,1.32.76.54-5.03,3.02-4.83,5.05-2.96,1.01-.33,1.44-5.01,1.44-5.74,5.27-2.79,4.57-4.89-1.97-4.72,1.42-.65.49-9.97,8.08-3.6,5.42-5.18,14.17,1.38,1.87-1.97,17.99.94.12-.82,7.63.98,5.86,5.85,2.12-1.12.89.44,1.93,1.59.45,1.35,3.18-5.69,1.12-3.32-4.13-4.08.79-1.24-1.4-1.82,2.16-2.98-.91-4.42,4.09-4.05-.49-3.76,1.7-1.31,1.45,1.25,3.83-5.91-1.48-2.2,2.08-3.68-.56-3.05-4.44-10.94-3.73-3.44,1.86-2.85-.66-4.35,5.12-4.28,1.18-3.28-2.85-1.83-5.9-3.32.31-3.59-3.17-5.85-.67.58-5.08,3.51-2.17-4.3-.73.61-2.24-8.47-.81-3.02-2.44-3.52.21-1.52,3.9-1.97.31-2.94-7.01-2.41-1.4.33-1.33-6.39.35-1.41-1.07-3.81,1.61-5.6-6.69-5.92.15-1.47-1.6-2.12,1.39-4.35-3.13-9.19-2.97-3.06,1.89.68,2.87-1.58,1.84,1.35.65-1.52,1.71,2.22,2.38-.15,2.97-4.87-1.22-10.86,1.25-3.87-2.79-4.08,4.25-2.16-3.55-5.18-1.77-7.2,3.26-2.84-.26-1.02,1.37-3.4-.61-.73-2.12-2.7-.71-2.98-6.05-1.71.92-7.76-5.25h0l-.87-5.71,2.87-1.41-.42-6.01,1.78-.77-.08-1.91,5.02-1.23-1.17-1.27.37-3.99,2.92-1.24,1.78-4.32.7,1.13,2.38-.88-.33-3.89,1.48.36,1.99-4.4-1.79-2.62,1.22-2.36,2.28.32,1.21-1.77-2.07-2.21.18-6.2-2.61,2.98-1.51-.05,1.02-.68-1.27-1.38.33-2.37,2.95-.76-1.96-1.67.61-1.76-1.62-3.03-1.7.4-.17-3.29-3.97.14-1.03-1.35-3.82,1.17-.54-2.82-2-.22-.14-2.1,1.18.56-.03-1.36,1.32-.21-.48-4.48,3.43-2.57-1.49-1.12-.49-4.94,2.06-.16-.94-4.08,1.38-.91-3.31-2.5,3.72-3.57,1.24.97,2.06-1.32,1.89,1.27.13-1.67,2.99-1.12.58-1.99,2.67,2.6-1.73,2.13,4.97,2.82,1.06-1.76-1.27-3.83,4.42-3.46,1.84,2.47,2.18-3.62,2.43-.6-.11.98,4.43,1.71.88-1.61,4.12.26,3.82-1.94,1.16-2.34,5.89.08,2.3-2.16,4.39,4.81,4.74-3.2,1.09-3.92,2.58-.32-.55-2.79,4.52,1.46,1.99-.97-.54-3.19-1.6.35-.38-1.13,3.31-.56,1.35-6.53,1.38-.65-2.15-2.4-1.4.56-1.5-1.22,1.68-6.11,1.5-.25,1.3,3.35.65-1.42,6.8-.34-.35-5.26-2.35-1.55v-5.08l-1.95-3.22,2.08.61,1.84-2.15,3.67-1-.59-1.74,3.66-3.93-.37-2.69,4.67-1.19,2.86-3.36,1.06.54.74-2.38,1.03.3.41-2.12-1.55-.97.05-1.75,4.19-1.31-.26-2.83,4.84-3.1-1.73-2.78,1.78-.52-1.74-6.69h0l-.26-1.03h0l7.77-3.67.63,1.5,1.83-1.01,3.47.76,3.2,2.49,1.45,3.04,2.68,1.1.04,1.7,3.19,1.26,6.55-4.78,2,.39.46,1.81,2.35-1.91,4.65-.15h0l.95,3.61,1.61,1.21-1.11,1.45.38,2.63,4.98,7.37-2.6,7.99,1.81.08.79,5.1,2.23,1.73,1.05-.57-.59-2.23,4.94-1.67,1.96-.17,1.58,2.59,8.14-.88.97-3.31,3.76-2.7-.63-2.89,3.13-3.36.26-4.67,8.19-8.32,2.31,2.54-.09,4.88,1.98-2.69h3.39l1.78,8.48,1.99-.38,1.03,1.7-1.58,1.1,1.46,1.49.1,5.58,2.78,3.08,2.2-5.99,1.35-.18-.77-1.1,1.21-6.24,1.63-3.27,1.64.35.28-3.13h.35l-.37-1.43,1.74-1.52,3.73,3.58,2.74-2.19-.79-1.88,1.62-.62-.48-1.66,1.55-.61,1.16,1.37,5.28-4.21.03,1.33,2.7,1.58.1,3.8,4.3,7.99,1.21-1.55,3.98-1.01,1.15.86.3-3.81h3.74l1.27,1.36-.49,2.21,4.75-.81,4.09,6.39,1.54-1.03.09,2.49,2.46.66-.9,2.51,1.43,1.26-.9,1.6,1.78,2.88.31,4.4,1.61,2.16,1.45-.13,2.2,8.52,5,5.77-1.76,1.21,1.08,2.39-1.33,2.9.71.95,5.06-1.52.8,2.02,2.2-.41,4.88,4.57,1.94-2.35-.05-1.96,2.38-2,4.07-.71.22,4.83,2.62.62.94-4.76,3.22-.46.41,1.3,2.28.28.6,1.99,5.61,2.73Z"/>
</svg>