<?xml version="1.0" encoding="UTF-8"?>
<svg id="Layer_1" data-name="Layer 1" xmlns="http://www.w3.org/2000/svg" viewBox="0 0 774.06 540.31">
  <defs>
    <style>
      .cls-1 {
        fill: #ccc;
        stroke: #fff;
        stroke-width: .5px;
      }
    </style>
  </defs>
  <path id="FR-PAC" class="cls-1" d="m627.82,503.52l2.09-3.54-1.82-2.13,1.71-1.14-.6-1.44-.64,1.26-.23-2.21.11-.91-2.62-2.32-4.96,2.77-10.99.32-1.97-1.45.05-2.29-3-4.77-3.06-.58-.87.22-1.48.88-.25.73-3.03-1.63,2.03,2.39-1.68-.42-.66.77,1.83.68-.07.13-1,1.01,2.63,1.71,2.37-2.08-3.47,4.38-1.48.11-3.8-1.77-11.85-1-1.49-1.72,2.31-1.96-.31-1.56-3.53-2.56-18.64-.68h0l.65-3.35,5.05-2.47.63-.65,7.88-4.59.64-1.97-2.82-.99,3.67-6.24,3.36-.84,5.41,1.84-.94-3.41,2.39-4.81-.52-4.17,1.5-1.21-1.59-1.87,10.61-8.27-.02-1.87,1.94-.1-3.68-6.73-4.18-1.39-.98-2.32,1.05-7-.91-2.37-2.16-.11-1.5-4.85v.3l.07-5.13,8.53,1.44,1.88,7.39,3.76-2.88,2.62.09,8.51-4.12,1.02,2.04,1.98.55,2.62-2.76h0l.99-.47h0l-.9,7.15,4.79,1.79,1.2-1.72,3.02,2.09,3.53-.62,1.84,1.21-.11,3.88,3.24.3,1.21,2.79,2.99.31,2.36-1.45,2.55-2.14-1.14-1.14.63-1.36,1.67-.41,2.34,2.02-.52,1.49,2.92.35.25-1.47-2.44-.69.53-1.54,2.14-.59v-6.09s-2.38,0-2.38,0l-.65-2.91-1.77-.48,1.31-2.36-5.02.28-1.63-1.77-1.73,1.13-3.86-3.2.79-1.42-1.48-2.93,1.18-.7,2.37,1.2,1.29-1.54-2.07-.91-.4-4.45,9.6,2.4.89-2.47,2.18-.19-4.12-3.6,3.13-5.87-.3-3.46,5.3,1.11,1.25-2,2.47.75,2.52-3.21-1.94-1.39,1.73-4.61,3.43,1.13,4.2-1.22,1.8-1.83-1.89-2.03,4.2-2.68,2.39,1.71,4.77-4.2,6.98,1.08,2.71-1.92,2.75,2.25,1.21-.59.15-7.36-2.19-1.26.07-3.92-4.45.2-2.91-1.72.95-4.22,1.51-.54-.85-2.74.92-1.63,1.08-.53,1.89,1.61,2.42-1.32,1.9,1.8.04,2.83,5.3,1.59,2.19-.27-.39-3.31,1.85-1.43,1.93.84,2.23-2.11,3.24,1.29h0l2.6,7.91,4.36.49-.43,2.07,1.68,2.64-1.29,1.87.46,2.93,6.93,4.8,2.88.56,1.56-1.58,5.34,3.37-1.39,2.98,4.69,9.18-5.05-.68-1.96,1.21-.86,2.09,1.18,2.91-1.11.09-1.06,3.84-3.34,1.6-1.4,2.26,1.39,4.18,4.33,4.35-3.42.72-.33,5.1,2.19,1.01,2.07,4.72,2.35,1.37.74,3.82,11.11,2.96,5.64,5.21,3.91-.47.89,2.65,2.17-.84,1.97,1.12.38-1.56,1.87.42,6.22-2.65,3.49.58,1.13-2.35,2.91.17-1.08,3.75,2.96,4.06-.57,3.58-2.63,1.18-.65,4.68-5.25,2.77-.53,3.92-3.77,2,2.14,7.73-2.37,1.22-.33,1.69-1.54-.98-1.46.8-1.93,2.71-4.14.55.67,2.19-1.02.92-1.09-2.59-.67,1.8-1.21-1.08-2.62.75-2.05,3.28-.51-1-2.7.79-2.17,5.64,1.44,2.97-1.48.86-1.4-2.48-3.68,3.05-1.39-1.36-3.28.77-1.59,2.38,1.21,1.45-4.03,5.78-1.81-.44-.44,1.87-4.02.29-2.71-1.21-1.77,6.36-2.19.58-.57,2.39-5.95,3.45,5.5.63.84-1.22,1.19,1.07-1.96,2.01.97,3.67-2.42,1.1.31,1.62-1.6.81-1.31-2.15-2.36-.49-3.99,3.24-6.89.55-1.4,1.72.14,3.2-5.53-2.93-5.36.52-2.26,4.19.14,2.49,1.22.24-1.05.53-3.69-.18-.1-.95,2.21-.34-.31-2.95-6.35.09-1.22-2.34-4.54.31-.3-1.89-2.06.5-.4,1.38,1.77.1,1.45,1.22.88,1.6-3.48-.93-1.96,2.73-1.91-.27-2.19-1.6.94-3.92-2.57-.07.34-1.93-4.74-.41-.57-3.06-3.98-.57-1.09,2.25-4.22-4.61-2.26,1.49-9.77-1.53Z"/>
</svg>