<?xml version="1.0" encoding="UTF-8"?>
<svg id="Layer_1" data-name="Layer 1" xmlns="http://www.w3.org/2000/svg" viewBox="0 0 458.81 540.31">
  <defs>
    <style>
      .cls-1 {
        fill: #ccc;
        stroke: #fff;
        stroke-width: .5px;
      }
    </style>
  </defs>
  <path id="FR-PDL" class="cls-1" d="m157.37,169.92l2.44,1.71-.89,3.06,4.64,2.34.45,4.94-3.62-5.74-3.3-.14-2.41-2.88.6-1.84-1.02-1.19,3.1-.27ZM231.12,33.58l4.06,1.76,1.93-.47,1.07-2.13,2.9,1.92,3.94-.25,1.96,4.1,2.17-.94,1.17,2.73,2.87-1.29-1.04-2.19,2.57.48,1.57-1.58.75,3.83,3.34-2.55,2.87-.15,2.56-3.33,7.02-.09,2.7,2.39,1.98-3.56,3.08,1.4,1.86-2.7-1.34-1.16.85-1.45,2.59.07,3.84,3.32-1.75,1.62,1.67,5,5.95.53v7.6l2.7-2.12.95,1.53,2.7.3.82-2.87,5.3-3.05-.77-1.49,1.81.63-.09-1.35,7.95-1.45,3.39,2.01,1.64,3.2-.76,1.22,1.37,8.36,5.4,2.16.63-1.08.21,2.36,2.63,3.33,5.47.26.92,1.2-.45-2.13,1.37-.72,1.88.86,3.35,6.15,1.39.72,2.3-1.28h0l7.31,5.13-4.02.51-.6,2.73-1.73.4,1.98.43-.14,2.05-3.05.22.22,3.08,2.78.68-1.45,4.02,1.88,4.24-2.07.73-.25,4.02-1.33-2.16-1.79,1.03.49,6.3-4.71,4.48.58,1.5-4.63,1.39-2.54,3.11.62,2.7,1.43-.44-1.4,1.94-8.18,2.46-.91,2.36-1.54.26-2.54-2.5-1.16,2.2,2.39,3.75-1.2.77-7.88-3.82-1.48.63h0l.07.78h0l-2.46,5.25,1.99,1.08-.29,2.48-4.25,9.19,1.82,1.62-2.65,1.83.44,1.34-4.29,5.93.12,5.82-1.6,1.99.9.58-.82,2.29h0l-2.21-1-1.64,1.36-2.06,4.2.25,2.48-3.1-1.29-.98,3.3-1.68.92-3.08-1.46,2.26-3.02-2.56-.44-1.26,1.28-3.78-1.04-4.62,1.7-3.48-.39-.68,2.22-3.14-.2-1.42,1.4,1.34-2.55-2.17-.17-3.81,1.76.79,2.86-3.42,3.22-4.41-.57-.53,1.41-2.21.33-4.5-1.93-1.31,1.64-2.15-.23-.57,1.81-2.69-.42,1.18,1.65.83-.52-.91,1.46,1.88.05-.71.99,3.2,1.21-1.43,3.26,3.44,4.15h.26l2.46,1.49h-.04.44l1.64,1.06-1.25,1.15h0l.06.37h0l-.14,3.37,3.97,5-1.46,1.26,2.66,2.07-1.35,2.45,2.67,1.32-.81,4.18,1.46,3.89-2.72,1.07,2.44,5.91-1.81,2.07-.23,3.1,1.3.57.92-2.02,4.15,2.61-1.22,2.29h-2.63l-.27,1.06-2.08.63-.54,1.91-3.11-.76-1.49,2.08-4.98-2.02.17-1.54-1.72.39h0l-.27-.38h0l-1.17,2.21-2.26-.84-2.77,1.48-1.84-1.11,1.96-4.33-2.78,1.74-4.89.15-1.32,2.91-2.54.06h0l-5.3.15-.26,4.02-6.79-5.72-1.71-.6h-7.7l-2.89-5.63-8.32-1.44-8.01-6.49-2.18-.21-2.73-10.37-5.64-7.86-1.12.36-3.07-4.83-7.83-6.73-.61-6.09,2.56-.23-.55-1.54,5.33-5.41-.8-.75,1.1-2.9,3.13-1.8-1.62-2.97-2.95-2.96-3.3-1.09-.56-.04-8.17-2.36,1.99-2.48,2.3.35.72-1.1-.31-8.69-2.49-.54-5.42,3.4-4.71-4.13-2.59.15-.89,1.67-7-2.89,2.24-1.67.19-2.69-3.33-3.28,5.05-4.49,1.49-2.23v-.48l2.13-2.64,1.34,1.89,5.22-.44,1.17-5.04,2.43.2.89,1.78,3.71-1.65-.25,1.62,1.59.47.39-2.91,3.67-1.03-.17-5.6,1.19-1.57-1.03-1.81,1.02-1.71,1.83.1.74-1.81,1.72.25,2.43-2.56,1.13,2.05,5.87-3.42,5.58,1.03,6.82-1.11,2.35-4.95,9.23-3.62-.36-2.97,5.61.66,1.54,2.67,7.21,2.07,1.55-6.9,2.13-1.48-.56-2.09,1.22-.71,1.33-6.14,1.82-.58.1-1.41,4.6.2,2.06-1.74-1.04-2.66.74-3.41-1.82-2.02-1.47-10.19h0l-.26-.23h0l-1.39-5.83,3.47-5.81-2.22-7.97.68-8.72Z"/>
</svg>